PathFileType	4	(X/Y/Z)	1H_nor_slow_right.trc
DataRate	CameraRate	NumFrames	NumMarkers	Units	OrigDataRate	OrigDataStartFrame	OrigNumFrames
250.00	250.00	8	18	mm	250.00	1	25471
Frame#	Time	c7	r_should	l_should	clavicle	r_upa	r_elb_l	r_elb_m	r_low	r_wri_l	r_wri_m	r_met	l_upa	l_elb_l	l_elb_m	l_low	l_wri_l	l_wri_m	l_met
	X1	Y1	Z1	X2	Y2	Z2	X3	Y3	Z3	X4	Y4	Z4	X5	Y5	Z5	X6	Y6	Z6	X7	Y7	Z7	X8	Y8	Z8	X9	Y9	Z9	X10	Y10	Z10	X11	Y11	Z11	X12	Y12	Z12	X13	Y13	Z13	X14	Y14	Z14	X15	Y15	Z15	X16	Y16	Z16	X17	Y17	Z17	X18	Y18	Z18
1	0.00000	1293.17310	1424.71082	185.79111	1379.49573	1357.36340	332.05957	1286.83459	1366.94116	9.49899	1399.79919	1284.10815	153.15674	1390.46167	1147.35632	399.09830	1392.35706	1061.28040	426.88272	1303.60938	1036.15088	396.14761	1402.62573	925.68597	433.44287	1414.40747	802.05676	435.05399	1340.56433	807.18469	463.75473	1412.38330	732.28235	478.65829	1240.17639	1167.95923	-65.24518	1233.91162	1067.25012	-88.52075	1200.75977	1051.89612	-2.64842	1273.89282	957.59485	-77.89577	1335.54041	857.02057	-33.47501	1262.12744	831.81995	-44.64049	1338.00696	775.14972	-71.50582
2	0.00400	1292.52100	1424.79590	186.29713	1378.85730	1357.36548	332.53119	1286.24963	1367.17224	9.94900	1399.24695	1284.28674	153.54405	1390.06421	1147.22534	399.10498	1392.05945	1061.02441	426.76547	1303.25330	1035.89478	395.94336	1402.19946	925.40668	433.62067	1413.82593	801.74921	435.49893	1340.04187	807.02557	464.18433	1411.32605	731.63879	478.71725	1239.89221	1168.10449	-64.87481	1233.83716	1067.35156	-88.17005	1200.70032	1051.90198	-2.28127	1273.75989	957.72021	-77.69235	1335.41626	857.05017	-33.27652	1262.03784	831.83362	-44.56437	1337.92822	775.22076	-71.50117
3	0.00800	1291.85913	1424.86426	186.80394	1378.21155	1357.33850	333.00018	1285.67432	1367.38611	10.37118	1398.69934	1284.45117	153.92694	1389.67004	1147.07642	399.10114	1391.76477	1060.74902	426.64099	1302.88647	1035.62048	395.73080	1401.77112	925.11609	433.79135	1413.26135	801.41833	435.92599	1339.51978	806.85687	464.59473	1410.56628	731.22296	479.07263	1239.59631	1168.23755	-64.49447	1233.74707	1067.44446	-87.82540	1200.61475	1051.91699	-1.90701	1274.13611	957.39209	-77.04809	1335.29187	857.05518	-33.14051	1261.92297	831.84949	-44.49459	1337.83423	775.28186	-71.49735
4	0.01200	1291.20972	1424.91431	187.28632	1377.56409	1357.27734	333.45895	1285.10132	1367.58496	10.78292	1398.15271	1284.60291	154.30363	1389.28589	1146.92456	399.09451	1391.45837	1060.47388	426.50833	1302.52576	1035.33496	395.49957	1401.33154	924.81421	433.94199	1412.71069	801.06635	436.31476	1339.01672	806.64819	464.98291	1409.90930	730.85870	479.48138	1239.29480	1168.36292	-64.11930	1233.63538	1067.53857	-87.47902	1200.50110	1051.92468	-1.55516	1274.61865	956.95984	-76.31155	1335.16492	857.04938	-33.01598	1261.79688	831.86267	-44.43456	1337.72180	775.33319	-71.49888
5	0.01600	1290.58093	1424.94800	187.75520	1376.93530	1357.18530	333.88376	1284.53992	1367.77576	11.19682	1397.61145	1284.73853	154.66354	1388.89661	1146.75696	399.07370	1391.13635	1060.19336	426.36603	1302.16797	1035.03955	395.24814	1400.88611	924.49768	434.06503	1412.16956	800.71014	436.67896	1338.51807	806.40247	465.34573	1409.28650	730.49469	479.89395	1238.98169	1168.49548	-63.77029	1233.51758	1067.62646	-87.15041	1200.38159	1051.93359	-1.23964	1274.18030	957.31592	-76.38348	1335.02332	857.04578	-32.90882	1261.66138	831.86505	-44.36976	1337.58948	775.37665	-71.50475
6	0.02000	1289.95605	1424.97351	188.22913	1376.32886	1357.07373	334.29288	1283.97302	1367.96606	11.60500	1397.06848	1284.85645	155.00679	1388.47510	1146.55273	399.03958	1390.79919	1059.91382	426.24503	1301.81628	1034.73218	394.97949	1400.44006	924.17151	434.16629	1411.61011	800.35529	437.04578	1337.99805	806.14575	465.68365	1408.67310	730.12976	480.30173	1238.66724	1168.62024	-63.44459	1233.38745	1067.70776	-86.85167	1200.25586	1051.94800	-0.94424	1274.90161	956.63232	-75.44938	1334.87415	857.03088	-32.81073	1261.51367	831.87738	-44.30610	1337.43823	775.41254	-71.51638
7	0.02400	1289.31775	1424.97949	188.71516	1375.71875	1356.94556	334.69571	1283.40686	1368.14746	11.99962	1396.51208	1284.95264	155.32777	1388.05896	1146.32898	399.00534	1390.44946	1059.61523	426.11948	1301.45667	1034.40784	394.69141	1400.00281	923.84326	434.25293	1411.05164	799.99792	437.39325	1337.48413	805.89331	466.00650	1408.06152	729.75775	480.69016	1238.34619	1168.73083	-63.13170	1233.23389	1067.80151	-86.56608	1200.09705	1051.97302	-0.66072	1274.95825	956.50446	-75.06427	1334.71924	857.01593	-32.71783	1261.34998	831.87830	-44.23768	1337.26660	775.44214	-71.52701
8	0.02800	1288.70007	1424.96289	189.19246	1375.12195	1356.79871	335.08646	1282.83813	1368.32117	12.37752	1395.97083	1285.02893	155.63092	1387.65955	1146.10095	398.97192	1390.08447	1059.30066	425.99359	1301.06494	1034.05457	394.39929	1399.56738	923.49847	434.33987	1410.68921	799.52679	437.34384	1336.99060	805.65192	466.32581	1407.46631	729.38672	481.06149	1238.01599	1168.83655	-62.82447	1233.06287	1067.89185	-86.28650	1199.92419	1051.99939	-0.38529	1274.83875	956.50946	-74.81228	1334.55273	856.99963	-32.63573	1261.16687	831.88037	-44.16874	1337.07690	775.46765	-71.53542
